<?xml version="1.0" encoding="utf-8"?>
<!-- Generator: Adobe Illustrator 21.0.0, SVG Export Plug-In . SVG Version: 6.00 Build 0)  -->
<svg version="1.1" id="Vrstva_1" xmlns="http://www.w3.org/2000/svg" xmlns:xlink="http://www.w3.org/1999/xlink" x="0px" y="0px"
	 viewBox="0 0 652 56.7" style="enable-background:new 0 0 652 56.7;" xml:space="preserve">
<style type="text/css">
	.st0{opacity:0.3;}
	.st1{fill:#292929;}
	.st2{opacity:0.2;fill:url(#SVGID_1_);}
	.st3{fill:#DDD7B5;}
	.st4{fill:#FFFFFF;}
</style>
<g id="perforation_x5F_shadow_7_" class="st0">
	<polygon class="st1" points="620.9,35 615.2,35 615.2,13.6 636.6,13.6 636.6,19.3 620.9,19.3 	"/>
	<polygon class="st1" points="567.5,35 561.8,35 561.8,13.6 583.2,13.6 583.2,19.3 567.5,19.3 	"/>
	<polygon class="st1" points="514.1,35 508.4,35 508.4,13.6 529.8,13.6 529.8,19.3 514.1,19.3 	"/>
	<polygon class="st1" points="460.6,35 455,35 455,13.6 476.4,13.6 476.4,19.3 460.6,19.3 	"/>
	<polygon class="st1" points="407.2,35 401.6,35 401.6,13.6 423,13.6 423,19.3 407.2,19.3 	"/>
	<polygon class="st1" points="353.8,35 348.2,35 348.2,13.6 369.6,13.6 369.6,19.3 353.8,19.3 	"/>
	<polygon class="st1" points="300.4,35 294.8,35 294.8,13.6 316.1,13.6 316.1,19.3 300.4,19.3 	"/>
	<polygon class="st1" points="247,35 241.4,35 241.4,13.6 262.7,13.6 262.7,19.3 247,19.3 	"/>
	<polygon class="st1" points="193.6,35 188,35 188,13.6 209.3,13.6 209.3,19.3 193.6,19.3 	"/>
	<polygon class="st1" points="140.2,35 134.6,35 134.6,13.6 155.9,13.6 155.9,19.3 140.2,19.3 	"/>
	<polygon class="st1" points="86.8,35 81.2,35 81.2,13.6 102.5,13.6 102.5,19.3 86.8,19.3 	"/>
	<polygon class="st1" points="33.4,35 27.8,35 27.8,13.6 49.1,13.6 49.1,19.3 33.4,19.3 	"/>
</g>
<linearGradient id="SVGID_1_" gradientUnits="userSpaceOnUse" x1="338.0607" y1="20.7789" x2="338.0607" y2="840.9506">
	<stop  offset="0" style="stop-color:#FFFFFF"/>
	<stop  offset="0.3115" style="stop-color:#8E877C"/>
	<stop  offset="0.5853" style="stop-color:#645A48"/>
	<stop  offset="0.873" style="stop-color:#000000"/>
</linearGradient>
<path class="st2" d="M663,790.6c0-0.7,0-1.5,0-2.2c0-1.3,0-1.3,0-2.2c0-1.5,0-2.9,0-0.1c0-0.9,0-1.9,0-3.1c0-1.3,0-3.6,0-3.1
	c0-0.1,0-1,0-2.7c0-1.4,0-3.1,0-3.1c0-220.9,0-753.3,0-753.3H13.1c0,0,0,523.1,0,747.4c0,1,0,2.1,0,3.1c0,1,0,2,0,3.1
	c0.1,0.4,0.1,2.1,0.2,2.4c0.1,1.9,0.1,0.3,0.2,2.4c0,1,0.1,0.7,0.1,2.2c0-0.2,0.1-0.5,0.1,2.6c0,2,0,1,0,3.4c0,1.2,0,0.4,0,1.5
	c0.3-1.6,0.7,0.1,1-0.8c-0.2,2.1-0.6,0.3-0.1,1.8c0.3,0.5,0.6,1.4,1,2.8c0.6,1.9,4.6,3.6,6.2,5.3c2.1-2,9.2,0.9,12.1,1.5
	c3,0.6,1.7,3.2,5.7,0.2c1.6,3.1,3.2,1.1,5.2,1.6c1.8,0.5,1.1,2.9,3.2,1.2c0.1,0,0.1,0.9,0.1,0.9c1.6-1,1.4-0.8,2.5,0.9
	c0.6-0.5,1.4-0.7,1.9-1.2c0.2,0.8,0.4,1.6,0.3,2.4c1.1,0.5,1.3,1.2,2,1.8c1.1,1.4,0.2,1.6,2.4,1.8c0.3,1.5,0.5,3.1,0.7,4.7
	c0.3-0.2,0.7-0.5,1.2-0.7c-0.2,0.7-0.2,3.5-0.2,3.6c0,1,0,1.7-0.1,2.7c0,0,0.6-0.8,0.7-0.9c-0.1,0.8-0.2,1.7-0.2,2.5
	c0,0,0.6,0.1,0.6,0.2c0.6-0.7,0.4-0.3,1.3-1c-0.8,1.3-0.4,2-0.4,3.4c0,0,0.5-0.3,0.6-0.3c0.2,0.4,0.2,0.8,0.1,1.2
	c-0.5,0.8-0.3,0.9,0,2.3c1.5-0.8,1.6-0.2,2.9-0.5c0.3-0.1,0.2-0.6,0.5-0.8c0.3,1.1,1.3,2.1,1.7,3.2c0.5-0.1,0.8-0.5,1.3-0.6
	c0.4,0.3,0.5,1,0.9,1.2c0.2-0.1,0.6-0.5,0.8-0.5c0.7,1.2,1.8,1.5,2.7,2.7c2.1-3,7.3,0.3,9.8,2c0.2-0.2,0.4-0.4,0.5-0.7
	c0.9,0,0.4,0.5,1.4-0.2c0.5,0.2,0.7,0.8,1.1,1.1c0.2-0.2,0.4-0.3,0.6-0.4c0.3,0.8,0.9,1.6,1.3,2.3c0.9-0.7,1-0.3,1.5-1.5
	c0,0.1,0.1,1.2,0.1,1.2c0.1,0,0.3-0.6,0.4-0.7c0.1,0.2,0.2,0.4,0.3,0.6c3-2.4,9.5-2.4,11-4.5c0,0.1,0.2,0.6,0.1,0.7
	c0-0.2,0-0.3,0-0.1c1,0.6,1.5,0.4,2.6,1.4c0.7-0.1,1.4-0.4,1.8-0.7c0.2,0.1,0.5,0.6,0.6,0.6c2.6-2.6,5.9-3.3,8.7-5.9
	c0.4,0.2,0.8,0.6,1.2,0.7c0.1-0.2,0.3-0.4,0.5-0.6c0.2,0.1,0.3,0.3,0.4,0.5c2-0.4,4.7-1.2,6,1c1.6-0.9,2.3-0.9,3.7-0.2
	c2.1-2.9,5.9-3.2,8.7-4c3.6-0.9,6.5-4.2,10.3-3.1c0.4-0.3,0.6-1.1,1-1.4c0.4,0.5,0.8,0.8,1.1,1.3c1.2-1.4,1.5-0.7,3.1-1
	c0.1,0.5,0.2,0.9,0.3,1.4c2.3-1.6,4.2-3.1,6.5-4.6c-0.1,0.5,0,1.2-0.1,1.7c0.6-1.3,1.9-2.5,2.7-3.5c0.2,0.7,0.3,0.6,0.2,1.5
	c0.4,0,1.2-0.7,1.3-0.7c0.5,0.3,1.1,0.9,1.7,0.9c0.8-2.7,3.6-1.8,5.3-3.9c0.1,0.1,0.7,0.7,0.7,0.7c1.3-0.8,2.3-1,3.3-2.4
	c0.2-0.1,0.2,0.9,0.2,0.9c0.3-0.6,0.4-1.1,0.8-1.6c0.2,0,0.3-0.1,0.5-0.1c0.3,0.3-0.2,0.7,0,1c0.6-0.6,1.2-1.1,1.6-1.5
	c2.1,0.4,4.2-0.3,6.1-0.9c0.1,0.5,0.3,1.2,0.3,1.7c3.1-1.8,9-0.2,13.1-1.1c3.9-0.8,11.8-5.4,15.2-3.6c0.4,0.9,0.9-0.1,1.3,0.9
	c0.5-0.2,0.9-0.3,1.4-1.1c0.5,1.1,0.9,2.4,1.4,1.1c0.5,0.2,0.9-0.5,1.4-1c1-0.2,1.9-0.5,2.9,0.6c0.8,0.6,1.6,1.5,2.4,0.5
	c0.4,0.7,0.8-0.8,1.2-0.8c0.4-0.8,0.8,0.5,1.2,1.7c0.8,1.1,1.6-2,2.4,0.9c0.8,0.6,1.6-0.7,2.4,1.1c0.8,0,1.6-0.9,2.5,1.2
	c1.6,0.2,1.3,0.5,1.5,1c0.6,1.2,1.3,1.5,1.9,0.6c0.6-0.2,1,1,1.1-0.3c0.3,0.6,1.9-1.5,3,0.4c0.4,0.1,1.4-1.5,2.2-0.7
	c0.8-0.7,1.3,0.5,0.7,1.3c0.6,2.2,1.9,0.6,2.9,0.6c1.5-0.7,0.8-0.4,1.5-0.6c0.1,1.2,3-2.6,1.5,1.3c2.5-0.8,1.8,0.6,1.5,1.4
	c0.4,0,2.7-2.2,1.5-0.6c0.9-1.3,0.2,0,1.6,0.1c0.2,0.8-0.1,2.2,0.8,1.6c-0.1,0.5,0.8,0.6,2.5-0.9c1.9-1.3,3.1-2.1,1.6,1
	c-0.5,0.3,1.7-0.1,1.6-0.7c0.1-0.4,1,1.2,1.5,1.7c0.7,1.7,2,1.9,3.7,1c0.1-0.2,0.3-0.7,0.4-0.9c0.6-0.2,1.3-0.4,1.9-0.7
	c0.2,0.6,0.5,1.3,0.7,1.9c0,0,1-0.5,1-0.5c0,0,0.2,0.8,0.3,0.8c0.3,0,0.9-0.6,1.2-0.8c0.1,0.4,0.3,1.2,0.4,1.7
	c1.5-0.2,1.7,0.1,2.9-0.9c0.2-0.1,0.5,0.9,0.6,0.9c0.2-0.6,0.5-1.1,0.7-1.7c0,0,1,0.1,1,0.2c0.6,1.5,1.8,2.5,3.3,2.8
	c0.3-0.2,0.5-0.7,0.7-0.9c1.2,0.9,2.7,1.2,4.2,1c0.2,0.5,0.4,1.1,0.5,1.6c0.2-0.6,0.8-1.4,1-2c0,0,0.2,0.6,0.3,0.5
	c0.7-0.8,0.6-0.8,1.6-0.6c0.3-0.6,0.8-1.2,1.1-1.6c1.6,3.4,4.6,0.2,5.9,3.6c0.5-0.4,1.1-0.7,1.6-1.3c2.1,0.9,4.6-0.5,6.3-0.6
	c0.4,0.6,1.4,1.2,1.7,1.6c0.2-0.7,1-1.3,1.2-2c1.1,1,2.2,1.6,3,2.9c0.7-1.1,2.3-1.8,3.1-2.6c0.9,1.5,1.1,3.5,1.8,4.8
	c0.5-0.6,1.2-0.9,1.7-1.5c0.3,0.6,1.3,1.2,1.7,1.9c0.2-0.3,0.3-0.8,0.6-1.1c2.1,0.7,3.3,1.8,4.4,3.8c0.7,0.4,1.8,0.9,2.8,1.5
	c1.6-0.2,2.5-1.1,2.9-2.9c0.4,0.3,1,0.4,1.5,1c1.6-1,2.2-0.7,2.6-2.7c0.2,0.7,0.7,1.3,0.8,2c0.4-0.7,1.5-1.3,1.9-2
	c0.5,0.2,1.2,0.3,1.7,0.5c0.3-0.5,0.3-1,0.7-1.5c0,0.2,0,0.3,0,0.5c1-0.5,1.9-1.6,2.5-2.3c0.1-0.4,0.1-0.9,0.1-1.3
	c0.3,0.6,0.7,1,0.9,1.5c4.1-2.1,11.6-1.8,15.1,1.4c0.5-0.6,1.2-0.9,1.6-1.6c0.1,0,0.6,0.4,0.6,0.4c0.1,0,0.7-0.7,0.9-0.8
	c0.3,0.1,0.9,1,1.1,1.3c0.3,0,0.5-0.9,0.9-1c0.4,0.4,0.5,1.1,0.9,1.6c0.3-0.2,0.7-0.8,1.2-0.9c1.9,1.4,3,2.5,4.7,3.8
	c0.3-0.3,0.4-0.7,0.8-1c0.5,0.9,1.3,1.6,1.7,2.8c-0.3-0.3,0.9-0.2,0.9-0.3c0.5,1,1.1,1.7,1.7,2.5c0.1-0.2,0.3-0.4,0.5-0.6
	c0.3,0.5,0.3,1.2,0.7,1.5c0.4-0.5,1.2-1.1,1.6-1.6c0.4,0.7,4.1,3.2,3.5,1.5c1,3,2,0.4,3,0.5c1,0.1,2-2,3.1,0.3c0.5,1,1,1.4,1.5,0
	c0.5-1.3,1-0.4,1.6,0.1c1-0.5,2.1,0.1,3.1-0.1c1,2.1,2.1,0,3.2-0.2c0.5-0.2,1.1,0,1.6,0.6c0.5-1,1.1-0.6,1.6-0.9
	c1.1,1.2,2.1-1.8,3.2-0.4c0.5,0.1,1.1-0.6,1.6-0.7c0.5,0,1.1,1.3,1.6,0.3c0.5,0.8,1.1,1.1,1.6,0.8c0.5,0.4,1.1-0.5,1.6-1.2
	c0.5-0.5,1.1-0.5,1.6,0.5c0.5-1.4,1.1-1.4,1.6-0.9c0.5,0.3,1.1,1.6,1.6,0.8c0.5,0.6,1.1-0.5,1.6-1.1c0.5-1,1.1,0.4,1.6,0.1
	c0.5,0.4,1.1,1.3,1.6-0.3c0.5,0.6,1.1,1.1,1.6,0.4c0.5,0.4,1.1-1.1,1.6-0.5c0.2-0.7,0.6,0.3,1.3-0.9c0-0.2,0.8,1.7,1.5,0.8
	c1.2-1.1,1,0.2,2-0.9c1.5-0.9,2.3-0.6,2,0.4c2.4-0.9,1.5-0.5,2.2-0.8c1.1-2.6,1.3-1.6,0,0.7c1.1-1.8,1.7,0.6,2.2-1.3
	c1.6-1.7,1.9-1.3,0.7,0.4c1.2-1,1.4-1.3,0.9,0.4c-0.7,1.8-0.3,0.1,0.5,0.3c0.7-1.1,1.7-1.3,1.9-1.1c1.1,0.5,3.1-0.4,2.8,0.3
	c0,1.5,0.3,1.9,0.7,1.8c0.5-0.1,1.1-0.7,1.8-1.1c0.6-0.8,0.5-1,0.2,0.1c0.6-0.5-0.6,1.4,0.8,0.4c0.7,0,1.8-1.8,0.7,0.4
	c0.1,0.3,0.2-1,0.2,0.5c0.6,0.4,1.1,0.1,1.7-0.3c0.6-0.3,1.2-1.1,1.9-0.1c0.7-0.5,1.5,1.2,2.2,0.1c0.7-0.5,1.3-1.9,2,0.5
	c0.6-0.4,1.2,0.3,1.8,1c0.6-0.2,1.1,0.9,1.6,0.5c0.5,0.6,1,1.1,1.4,1.5c0.4,0.1,0.8,0.9,1.2,0.8c0.1-0.7,0.1,0.4,0.2,0
	c0.2-0.2,0.7-1.4,1.2-1c1.1-1.2,1.9,0.6,2.7-0.5c0.5-1.8,1-1.4,1.4-1.4c0.6,0.2,0.6,2.4,1.4,0.7c0.8-1,1.7-1.7,2.7-0.9
	c0.4-0.1,1.1-1.4,1.4-0.9c0.4,2.1,1.1,1.3,1.4-0.1c0.4,2.1,0.8,0.4,1.4,0.2c0.3-0.5,0.9-1.6,1.4-1.3c0.4,0.8,2.3,0.3,2.7-1.1
	c0.6-0.8,0.6-2.8,1.4-1.4c0.6,0.7,0.2,1.2,1.4,0.3c0.8,0.8,1.8-3,1.6-1.3c0.3-1.9,0.6,2.1,1.6,0.1c0.2-2.1,1-0.9,1.6-1.2
	c0.1,0,0.5-0.2,0.6,0.1c1.1-1.1,1-0.8,1.7-1.1c0.3-0.1,0.9-0.3,1.9-0.9c0.6-0.6-0.4,0.5,0.5-0.2c1.5-1,1.8-0.6,2.4-0.5
	c0.4-0.6-0.3-0.1,1.2-0.2c1.2-0.1,2.5-1.9,2.3-0.4c0.8-1.5,2.1-0.6,2.3-0.1c1.1,0.4,1.8-2.9,2.2,0.1c1.6,1.7,1.4,0.3,2.2,0.4
	c1.2-1,2.2,2.2,2.2,0.6c0.9,0.5,2,0.7,2.1,0.8c-0.2-0.7,1-0.7,1,0.5c0.9,0.3,0.6,1.8,1,0.5c0.3-0.2,1.7-1,1.7,0.6
	c0.3-1.4,1.6,1.2,1.6,0.7c0.5,2,1,0.5,1.6,1.5c0.5-0.6,1,0.5,1.5,0.1c0.5-0.8,1-0.3,1.4,0.1c0.5,1.4,0.9,1.8,1.4,1.6
	c0.5-0.3,0.9,0.9,1.3,0.2c0.4,0.3,0.9,0.4,1.3,1.8c0.5,1.5,1,1.1,1.6,1.3c0.5,1.5,1,1.9,1.5,0.2c0.5,1.8,1-0.2,1.5,1.3
	c0.5,1.7,1,0.4,1.5,0.1c0.9-0.6,7.3,3,8,4c1.9,0.1,4.1,0.9,4.9-1.5c0,0,0.6,0.6,0.5,0.7c-0.1-0.2,0.5-0.4,0.5-0.4
	c0.2,0.6,0.6,1.2,0.8,1.8c2.2-1.4,2.7,0.8,5.2-0.1c0.1,0.1,0.6,0.9,0.7,1c1.1,0.1,1.9,0.6,3,0.4c0.2,0.3,0.2,0.7,0.4,1
	c2.9-0.2,5.7-3.7,8.4-1.1c0.5-0.1,0.9-0.6,1.3-0.6c0.1,0-0.1,0.6,0,0.6c1.7-1.2,3.4-1.6,5-2.7c0.3,0.3,1.1,0.6,1.5,0.9
	c1.4-1.7,7.9-4.8,9.2-4.3c1.1-1.9,2.3-2.1,3.3-0.3c0.9-1.2,1.5-1,2.4-2.4c0.4,0.4,0.5,0.7,1,1c1.7-3.7,4.5-3.4,7.3-5.5
	c0.3,0.2,0.1,0.7,0.4,1c0,0,1.6-1.2,1.4-1.1c0.7,0.6,1.9,0.8,2.6,1.7c1.9-2.1,4.7-1.3,6.5-3.1c0.4,0.6,1.3,1.1,1.7,1.7
	c2.3-1,6.5-1.6,9.4-2.1c3-0.5,6,0.5,8.6-1.5c0.6,3.3,3.3,2.5,5.4,3.9c1.9-1.4,3,0.1,4.8-1.7c2,1.6,3.9,4.1,5.9,0.9
	c1.6,1.5,3.5,1.8,4.7-0.3c2.4,6.7,12.7-1.3,14.6-4c0,0.3,0.1,0.6,0.3,0.9c0.4-0.4,0.3-1.2,0.8-1.5c0.4,0.1,0.8,0.5,1.3,0.5
	c0.5-0.3,0.2-0.8,0.5-1.1c-0.3,0.4,0.5,0.6,0.5,0.6c0.2-0.8,0.5-1.6,0.8-2.5c0.1,0.4,0.2,1.1,0.4,1.4c0.2-1.2,0.6-2.3,0.8-3.5
	c0.1,0.6,0.2,1.3,0.2,1.9c0.4-0.1,0-1.1,0.3-1.3c0,0.5,0,0.9,0.1,1.4c-0.1-1.6,0.2-3.4,0.6-4.6c0.6,0.2,0.3,0.5,0.7,0.9
	c0.3-0.7,0.2-1.5,0.4-2.2c0,0,0.2,0.5,0.2,0.5c-0.2-3.4,0.1-6.8,0.4-10.2c0.1,1.6,0.2,3.3,0.3,4.9c0-1.6,0.4-3.1,0.7-4.6
	c0.1,0.1,0.2,0.2,0.2,0.3c-0.5-1,0.3-5.8,0.4-6.9c0,0,0.1,0.3,0.1,0.4c0-0.1,0-0.2,0.1-0.3c0,0,0.1,0.6,0.2,0.6
	c0-1.2,0.5-2.5,0.7-3.7c0.1,0.2,0.3,0.7,0.5,1c0.2-1.4,0.9-3.1,1.6-3.9C663,790.8,663,790.7,663,790.6z M60.4,53.8H39.1V32.4h21.4
	V53.8z M113.8,53.8H92.5V32.4h21.4V53.8z M167.2,53.8h-21.4V32.4h21.4V53.8z M220.6,53.8h-21.4V32.4h21.4V53.8z M274,53.8h-21.4
	V32.4H274V53.8z M327.5,53.8h-21.4V32.4h21.4V53.8z M380.9,53.8h-21.4V32.4h21.4V53.8z M434.3,53.8h-21.4V32.4h21.4V53.8z
	 M487.7,53.8h-21.4V32.4h21.4V53.8z M541.1,53.8h-21.4V32.4h21.4V53.8z M594.5,53.8h-21.4V32.4h21.4V53.8z M647.9,53.8h-21.4V32.4
	h21.4V53.8z"/>
<path class="st3" d="M1.8,40.6c0,119.5,0,523.5,0,713.4c0,1,0,2.1,0,3.1c0,1,0,2,0,3.1c0.1,0.4,0.1,2.1,0.2,2.4
	c0.1,1.9,0.1,0.3,0.2,2.4c0,1,0.1,0.7,0.1,2.2c0-0.2,0.1-0.5,0.1,2.6c0,2,0,1,0,3.4c0,1.2,0,0.4,0,1.5c0.3-1.6,0.7,0.1,1-0.8
	c-0.2,2.1-0.6,0.3-0.1,1.8c0.3,0.5,0.6,1.4,1.1,2.9c0.4,0.4,0.9-1,1.5,2.2c0.9,0.4,1.8,1.1,2.7,1.3c0.9,0,1.8,3,2.8,1.2
	c1-0.9,1.9-0.7,2.9,0c1,0.6,2,0.9,3,1.3c1,0.5,2,1.1,3,0.2c1,0.2,2,0.3,3,0.6c1,3.5,2,1.9,3,1.2c1-0.1,2-2.4,3,0
	c1,1.2,2,1.3,2.9,0.5c1-1.4,1.9,0.8,2.8,1.8c1.4,1.1,2-2.2,1.9,0.6c0.3-1.5,0.9-1.3,1.4-0.7c0.6-1.1,1.1,1.5,1.3,1.4
	c0.7-1.1,1.3-0.8,1.6-0.9c0.4-1.6,0.5,2,0.6,2.2c2-1.3,0.8,3,2,1.5c0.2,1.5,0.1,1.4,1.3,2.1c1.2-0.9,1.9,0.8,1.1,2.2
	c1,0.6,0.3,3,0.7,2.3c0-0.7,0-0.1,0.1-0.1c1.3-0.9,1.5-0.8,0.5,2.1c0.1,1.2,0.2,1.7,0.3,0.9c0,0.2,0.1,1.4,0.3,1
	c-0.5,2.4-0.8,2.2,0.4,0.8c-0.2,0.6-0.3,1.9-0.3,2.7c0.1,0,0.3,0.4,0.5-0.2c0.1,1.3,0.2-0.6,0.3-0.1c0-0.3,0.1-0.1,0.2-0.1
	c0,0.6,0-0.7,0,0.1c0.6,0,0.9-1.2,1.1-0.3c-0.2-0.2-0.5,1-1,0.7c0,1.5,0.1,2.1,0.1,1.6c0,1.1,0.7,1.1,0.5,0.3c0.3-0.2,0.5,0,0.6,0.2
	c0,0.2-0.1,0.6,0,1.4c-0.9-1.6-0.8,2.5,0.3,2c0.9-1.7,1.8-0.5,2.7-0.3c0.5-2.6,0.9,1.1,1.4,1c0.5,1.1,0.9,2,1.4,0.7
	c0.5-0.2,1-0.3,1.4,1.3c0.5-0.2,1-1.8,1.5,0.7c0.5-1.1,1,0.6,1.5,0.8c0.5,0.7,1,0.9,1.5-0.7c0.5,0.3,1-0.4,1.5-0.6
	c0.5,1.7,1,0,1.5,0.9c0.5,0.5,1,0.9,1.5,1.3c0.5,0.1,1,0.7,1.5,0.4c1-0.5,2,0.7,2.9,1.4c0.5-2.4,1,0.3,1.5-0.9
	c0.5-0.9,1,0.5,1.4,1.2c0.4-1.2,0.8-0.8,1.2,0.5c0.7,2,1.4,0.8,2.1,0.5c0-1.1,0.1-1.1,0.1-0.7c0,0.1,0.1,1.6,0.1,0.8
	c0.2,0.1,0.4-1.6,0.6,0.2c0.8-0.7,1.6-1.2,2.6-2c1-1.6,2-0.4,3.2-1.3c0.6-0.2,1.2,0.4,1.8-0.4c0.6-0.2,1.3,1.4,2-0.1
	c0.4,0.7,0.9,0.2,1.3,0.1c0.1-0.9,0.2-1.6,0.3-0.1c0-0.1,0-1.1,0,0.1c0.7-1.3,1.4,0.1,2.1,0.4c0.7,2,1.3-1.2,1.9,0.7
	c0.4-1.9,0.8,1,1.3-0.5c0.4,1.1,0.7-0.1,1.2-1.4c0.4-0.2,0.9-1.7,1.3-1c0.1-0.9,0.2,0.5,0.3-0.2c0.4,0.3,0.9,0.1,1.4-1
	c0.5-0.5,1-0.2,1.6-0.4c0.5-0.5,1.1,0.5,1.7-0.5c0.6-1.1,1.2-1.3,1.9-0.2c0.3,0,0.5,0,0.7-0.8c0.3,0.9,0.5,0.5,0.7,0.7
	c0.6-1,1.1-0.9,1.6-0.7c0.5,0.5,1,1.1,1.5,1c0.5-0.7,1-1.2,1.4-0.8c0.5-0.1,0.9,0,1.3,1.7c0.6-1.5,0.9-0.7,2.4-1.1
	c2-0.3,1,1.3,1.5,0.3c0.8-0.8,1-0.8,1.1-0.8c0-0.1,0.1-1,0.4-0.6c0.3,0.1,2.3-0.7,3-1c-0.2-0.4,1-1.2,1.5-1.2c0.5-0.7,1-0.7,1.5,0.1
	c1,0.2,2-0.7,3-1c0.5,0.6,1,0.8,1.5,0.4c0.5,0.2,1-0.6,1.5-1.4c0.5-1.5,1-0.8,1.5-1.1c0.5,0.3,1-0.8,1.5,0.2
	c0.8-1.8,2.1-0.5,2.4-0.2c0.9-2,1.1-1.8,1.2-1.2c0.9-0.2,0.6,1.2,1.2,0.9c0.7-1.4,0.2-0.6,1.5-1.3c0.3,0.3,1.4,0,1.5,0.3
	c0.2,0.8-0.4,2.2,1.5,0.8c0.9-0.5,2.2-1.8,1.5-1.8c2-0.3,2-1.4,2.9-1.1c1.1-1.4,1-1.5,0.9-0.1c-0.1,0.7-0.2,1.5,0.9-0.6
	c0.9-1,1.6-3.1,2-1.9c0.4-0.4,0.4,1.3-0.2,1.3c1.8,0.1,0.8-0.7,1.8-0.7c1.4,1.9,2,0.4,1.8-0.6c1.1-0.7,1.5-0.3,1.8-0.6
	c-0.1-0.6,1.5,0.8,1.8-0.6c1.4-1.7,1.3-0.9,1.7-1c0.3,0.5,0,1.2,1,0.1c0.8,0,1.2-0.6,1.1-0.2c0.1-0.1,0.2-0.3,0.3-0.4
	c1.1-1.8,1.5-1.6,1.3-0.3c0.1-0.6,0.7-2.3,1.1-1.7c0.4-0.3,0.6-0.1,0,1.1c1-0.8,1.7-1.2,1.8-1.1c-0.8-1.5,1.2-0.3,1.2-0.5
	c0.6,0,1.8-0.2,2.3-0.6c0.8,0.5,2.7-1.6,2.6-0.2c-0.1,0.9,0.2,1.8,0.7,1.2c0.5-0.7,1.1-0.5,1.8-1c0.4-0.1,0.7,1.6,2.2,0.5
	c1,0.4,2,0.1,2.9,0.3c0.9-0.1,1.9,0,2.8-0.3c0.9,0.9,1.8-0.3,2.7-0.7c0.9,0.7,1.8-0.5,2.6-0.3c0.9-1.5,1.7,0,2.6-0.9
	c0.9-1.6,1.7,0.4,2.6-0.6c0.9-1.2,1.7-1.8,2.6-0.9c0.9-2.5,1.7,1.9,2.6-0.4c0.9-1.2,1.7-0.9,2.6-0.4c0.4,0.9,0.9-0.1,1.3,0.9
	c0.5-0.2,0.9-0.3,1.4-1.1c0.5,1.1,0.9,2.4,1.4,1.1c0.5,0.2,0.9-0.5,1.4-1c1-0.2,1.9-0.5,2.9,0.6c0.8,0.6,1.6,1.5,2.4,0.5
	c0.4,0.7,0.8-0.8,1.2-0.8c0.4-0.8,0.8,0.5,1.2,1.7c0.8,1.1,1.6-2,2.4,0.9c0.8,0.6,1.6-0.7,2.4,1.1c0.8,0,1.6-0.9,2.5,1.2
	c1.6,0.2,1.3,0.5,1.5,1c0.6,1.2,1.3,1.5,1.9,0.6c0.6-0.2,1,1,1.1-0.3c0.3,0.6,1.9-1.5,3,0.4c0.4,0.1,1.4-1.5,2.2-0.7
	c0.8-0.7,1.3,0.5,0.7,1.3c0.6,2.2,1.9,0.6,2.9,0.6c1.5-0.7,0.8-0.4,1.5-0.6c0.1,1.2,3-2.6,1.5,1.3c2.5-0.8,1.8,0.6,1.5,1.4
	c0.4,0,2.7-2.2,1.5-0.6c0.9-1.3,0.2,0,1.6,0.1c0.2,0.8-0.1,2.2,0.8,1.6c-0.1,0.5,0.8,0.6,2.5-0.9c1.9-1.3,3.1-2.1,1.6,1
	c-0.5,0.3,1.7-0.1,1.6-0.6c0.3-2.1,0,3,1.6,1.5c0,1.3,0.2,2.2,1.6,1.2c1.2,1.8,1.4-0.4,1.6-0.4c1.1,1.1-0.3-1.4,1.6-0.5
	c0.7-0.2,1.1-2.4,1.6,1.3c2-2,0.6,0.7,1.6,0c2-2.2,0.8,2.1,1.6,0.8c0.5,0.4,1.7-0.2,1.6,0.4c0.9-0.3,0.9-2.3,1.6,0.2
	c0.1-0.8,0.4-1.6,0.7-2.1c0,0.4,1.5-0.3,0.9,1c0.2-0.4,0.5,0.6,1.6,1.6c0.7,0.2,1-0.9,1.7,0.8c0.6-2.6,1.1-0.3,1.7-0.5
	c0.6-0.7,1.1-0.2,1.7,0.7c0.6-0.1,1.1-0.8,1.7-0.5c0.6,4.9,1.1-2.5,1.7,0.5c0.6-1.3,1.1-1.5,1.7-0.5c0.5-1.6,1-2.9,1.5-0.7
	c0.5-1,1,1.5,1.5,0.9c1,0.9,2-1.6,2.9,0.1c1,3.1,1.9,0.4,2.9,0c0.9,1.4,1.9,0.7,2.8,0c0.9-1.6,1.8,1.1,2.7,0.1
	c0.5-1.6,0.9,0.7,1.3,0c0.4,1.8,0.9,1.3,1.3,0.2c0.4-1.5,0.9-1.1,1.3-0.5c0.4,0.8,0.9,1.5,1.3,0.8c0.4,0.4,0.9,2.1,1.3,1.4
	c0.4-0.7,0.9-1,1.3-0.9c0.4-1.5,0.9-1.5,1.3-1.4c0.4-0.8,0.9,0.5,1.3,2.1c0.2,2.8,0.4,1.9,0.6,2.6c0.2,0.4,0.4-0.4,0.6-0.5
	c0.4-0.4,0.8-0.3,1.3-1.1c0.4,0.1,0.8,1.7,1.3,1.2c0.4,2.3,0.8-1.5,1.2,0c0.4-0.8,0.8-0.3,1.2,0.1c0.4-0.3,0.8,1.5,1.2,1.5
	c0.4,0.2,0.7-0.7,1.1,0.6c0.4,1.3,0.7,2,1.1,1.1c0.7,0,1.5,1.6,2.2,1.9c0.7-1.7,1.4,0.5,2.1-1c0.4-2.1,0.7-2.3,1.1-2.1
	c0.4-0.4,0.7,0.8,1.1,1.1c0.4-0.4,1.2-0.6,2.2-0.9c0.1-2.2,0.4-2.2,0.7-1.6c0.3-0.3,0.5,1.6,0.5,1.8c0.8-0.8,0.7,0,1.1-1
	c1-2.5,1.1-0.1,2.3-0.7c0.8,0.4-0.2-1,1.2-1.6c-0.1,0.3-0.6,1,0.3,0.5c0.8-0.8,1.2-1.7,1.4-1.1c0.7-1.4,0.5-1.5,0.7-0.9
	c0-2.1,0.1-1.7,0.6-0.8c0.6,0.3,0.7-0.1,0.3,0.7c0.1,0.1,1.4-0.3,3-1.1c1-0.2,1.6,0.2,3.5-0.4c0.2,0.8,1,0.9,2.6,0.3
	c0.6,0.4,1.4,0.6,2.5,0.5c1.1-0.1,1.1,0.9,2.1,1c0.8-0.2,1.1,0.6,1.6,1.1c0-0.4,0.1,0.5,0.4-0.9c0.9,0.6,1.2-2,1.8-0.1
	c0.6-1.9,1.2-1,1.8,0.2c0.6,0.3,1.2-2.7,1.7,0.3c0.6,1.1,1.1-1.6,1.6-0.4c0.5,1.4,1.1,0.1,1.6,1.3c0.4-0.9,0.9,1.1,1.3,1.6
	c0.4-1.4,0.9,0.5,1.4,0.6c0.5,0.7,0.9-2.6,1.4,0.2c0.5-1.4,0.9,2.3,1.4,1.5c0.5-1.1,0.9,0.1,1.4,1.5c0.5,0,1,2.1,1.4-0.1
	c0.5,2.9,1,1.7,1.4,1.2c0.5-0.4,1-1.8,1.5-0.1c0.5,2.8,1,1.3,1.5,1.7c0.5-0.9,1,0.4,1.5-0.9c1,3,2,0.4,3,0.5c1,0.1,2-2,3.1,0.3
	c0.5,1,1,1.4,1.5,0c0.5-1.3,1-0.4,1.6,0.1c1-0.5,2.1,0.1,3.1-0.1c1,2.1,2.1,0,3.2-0.2c0.5-0.2,1.1,0,1.6,0.6c0.5-1,1.1-0.6,1.6-0.9
	c1.1,1.2,2.1-1.8,3.2-0.4c0.5,0.1,1.1-0.6,1.6-0.7c0.5,0,1.1,1.3,1.6,0.3c0.5,0.8,1.1,1.1,1.6,0.8c0.5,0.4,1.1-0.5,1.6-1.2
	c0.5-0.5,1.1-0.5,1.6,0.5c0.5-1.4,1.1-1.4,1.6-0.9c0.5,0.3,1.1,1.6,1.6,0.8c0.5,0.6,1.1-0.5,1.6-1.1c0.5-1,1.1,0.4,1.6,0.1
	c0.5,0.4,1.1,1.3,1.6-0.3c0.5,0.6,1.1,1.1,1.6,0.4c0.5,0.4,1.1-1.1,1.6-0.5c0.2-0.7,0.6,0.3,1.3-0.9c0-0.2,0.8,1.7,1.5,0.8
	c1.2-1.1,1,0.2,2-0.9c1.5-0.9,2.3-0.6,2,0.4c2.4-0.9,1.5-0.5,2.2-0.8c1.1-2.6,1.3-1.6,0,0.7c1.1-1.8,1.7,0.6,2.2-1.3
	c1.6-1.7,1.9-1.3,0.7,0.4c1.2-1,1.4-1.3,0.9,0.4c-0.7,1.8-0.3,0.1,0.5,0.3c0.7-1.1,1.7-1.3,1.9-1.1c1.1,0.5,3.1-0.4,2.8,0.3
	c0,1.5,0.3,1.9,0.7,1.8c0.5-0.1,1.1-0.7,1.8-1.1c0.6-0.8,0.5-1,0.2,0.1c0.6-0.5-0.6,1.4,0.8,0.4c0.7,0,1.8-1.8,0.7,0.4
	c0.1,0.3,0.2-1,0.2,0.5c0.6,0.4,1.1,0.1,1.7-0.3c0.6-0.3,1.2-1.1,1.9-0.1c0.7-0.5,1.5,1.2,2.2,0.1c0.7-0.5,1.3-1.9,2,0.5
	c0.6-0.4,1.2,0.3,1.8,1c0.6-0.2,1.1,0.9,1.6,0.5c0.5,0.6,1,1.1,1.4,1.5c0.4,0.1,0.8,0.9,1.2,0.8c0.1-0.7,0.1,0.4,0.2,0
	c0.2-0.2,0.7-1.4,1.2-1c1.1-1.2,1.9,0.6,2.7-0.5c0.5-1.8,1-1.4,1.4-1.4c0.6,0.2,0.6,2.4,1.4,0.7c0.8-1,1.7-1.7,2.7-0.9
	c0.4-0.1,1.1-1.4,1.4-0.9c0.4,2.1,1.1,1.3,1.4-0.1c0.4,2.1,0.8,0.4,1.4,0.2c0.3-0.5,0.9-1.6,1.4-1.3c0.4,0.8,2.3,0.3,2.7-1.1
	c0.6-0.8,0.6-2.8,1.4-1.4c0.6,0.7,0.2,1.2,1.4,0.3c0.8,0.8,1.8-3,1.6-1.3c0.3-1.9,0.6,2.1,1.6,0.1c0.2-2.1,1-0.9,1.6-1.2
	c0.1,0,0.5-0.2,0.6,0.1c1.1-1.1,1-0.8,1.7-1.1c0.3-0.1,0.9-0.3,1.9-0.9c0.6-0.6-0.4,0.5,0.5-0.2c1.5-1,1.8-0.6,2.4-0.5
	c0.4-0.6-0.3-0.1,1.2-0.2c1.2-0.1,2.5-1.9,2.3-0.4c0.8-1.5,2.1-0.6,2.3-0.1c1.1,0.4,1.8-2.9,2.2,0.1c1.6,1.7,1.4,0.3,2.2,0.4
	c1.2-1,2.2,2.2,2.2,0.6c0.9,0.5,2,0.7,2.1,0.8c-0.2-0.7,1-0.7,1,0.5c0.9,0.3,0.6,1.8,1,0.5c0.3-0.2,1.7-1,1.7,0.6
	c0.3-1.4,1.6,1.2,1.6,0.7c0.5,2,1,0.5,1.6,1.5c0.5-0.6,1,0.5,1.5,0.1c0.5-0.8,1-0.3,1.4,0.1c0.5,1.4,0.9,1.8,1.4,1.6
	c0.5-0.3,0.9,0.9,1.3,0.2c0.4,0.3,0.9,0.4,1.3,1.8c0.5,1.5,1,1.1,1.6,1.3c0.5,1.5,1,1.9,1.5,0.2c0.5,1.8,1-0.2,1.5,1.3
	c0.5,1.7,1,0.4,1.5,0.1c0.5,0.9,1-0.7,1.5,0.4c0.5,0,1,0.3,1.5,0.8c1,1.1,2,0.7,3,1.1c0.5,0.6,1-0.4,1.5,1.3c0.5,1.1,1,0,1.5-0.3
	c1,0.8,2,1.3,3,0.8c0.5,0.1,1-3.2,1.5-0.7c0.5-2.1,1,1.2,1.5,1.4c0.6-1,1.1-0.8,1.6-1c0.4-0.2,0.8,0.7,1.4,1.4
	c0.6-0.5,1.3,0.4,1.8-0.7c0.5-0.4,0.9,1.3,1.1,1c0.2-1.3,2.5,2.1,2.9,0.2c0,0.3,0.5,2,1,0.9c0.6,0.7,1.4,0.4,1.9-0.9
	c2.2-1.1,1.3-0.5,2.9-0.2c0.2-1,1.9-1.2,2.9-0.3c0.1,1.8,2.3-1.5,1.4,0.7c0.6-0.7,1.9-1.3,1.4-1.2c1.2-0.9,1.5-0.4,2.9-0.6
	c0.8-1.8,1.3-0.9,1.8-0.6c0.4,1.1,0.7,0.3,1.1-0.2c2.5-1.2,2-1.8,2.9-1c0.4-0.2,3.1-1.3,2.9-1.1c0.7-2.4,1.1-1.9,1.4-1.7
	c0.8-0.8,1.3,0.2,1.4,0.4c0.3-1.1,1.3-2.3,1.5-1.4c0.6-1.1,1.4,0,1.5-0.1c0.4,2.7,0.8-0.8,1.5,0.1c0.1,0.2,0.8,0.1,1.5-1.7
	c0.1,1.4,1.5,1.9,1.5,0c0.8-0.4,1.4-1.1,1.5-1.8c0.8,0.4,2-2.1,2.8-0.7c0-0.2,1.2-0.5,1.4-1.3c1,0.2,1.1-1.5,1.4,0.7
	c0.2,0.2,0.9-0.6,1.4-1.4c0.5-0.1,1,0.6,1.4,0.9c0.5-0.2,1,1.6,1.4,0.8c0.5-1.2,1-0.9,1.4-1.2c1,0.4,1.9-0.9,2.9-0.3
	c0.5,0.2,1-0.1,1.4-1.4c0.5,0,1,0.4,1.4,1.2c1,1.8,1.9-1.2,2.9-0.1c1,1.6,1.9,0.2,2.9-0.1c0.9-0.1,1.8-1.3,2.6-0.7
	c0.9,0.7,1.8-1.5,2.7-0.6c0.9-1.3,1.8-0.2,2.7,0c0.9-0.3,1.8-0.2,2.7,0.1c0.5-1.3,0.9-0.5,1.4-1.4c0.5,0.1,0.9-1.5,1.4,1.7
	c1,0.5,1.9,1.9,2.9,0.3c0.5,1,1,1.1,1.5,1.5c0.5,0.6,1-0.7,1.5-1.1c1,0,2,1.5,3,0.4c1-2.7,2,1.6,3,0.4c1,2.4,2,1.2,3,0.3
	c1-2.1,2,0.9,3,0.3c0.5,1.3,1-0.1,1.5-0.1c0.5-1.1,1-2.1,1.5,0.2c1,0.5,2,1.9,2.9,0c1,0.8,1.9-1.3,2.9-0.2c0.9,0.6,1.9-0.5,2.8-0.4
	c0.9-1.3,1.8,1.2,2.7-0.6c0.5,0.4,0.9-3.5,1.4-1.4c0.2,1.6,0.5-2.6,0.7-2.3c0.2,1.1,0.5-2.9,0.7,0.8c0.5-1.5,0.9-3.2,1.4-1.5
	c0.4-0.7,0.9,1.3,1.3-1.6c0.2,3,0.4-0.7,0.6,1.1c0.2-0.9,0.4-2.1,0.6-2.8c0.2,0.1,0.4,3.9,0.6,0.7c0.2-2.9,0.4-0.6,0.6-2.6
	c0.1-0.8,0.2,3.1,0.3,2c0.1-0.5,0.2-1.1,0.3-1.6c0,1.9,0.1,2.8,0.1,0.9c0-0.3,0.1-2.8,0.1-2.8c0.1,0.6,0.2-5.8,0.3,0
	c0.2-1.2,0.4-0.4,0.6-1.5c0.2,2.9,0.4,1.9,0.6,0c0.1-3.5,0.3,2.2,0.4-1.1c-0.1,1.2-0.2-1.2-0.2-2.1c0-0.3,0-0.6,0-0.1
	c0-1.8,0.1-2.8,0.1-2.6c0.1-0.5,0.1,1.5,0.2-3c0,0.1,0.1,0.8,0.1-1.5c0-1.4,0.1-0.8,0.2,2.3c0.1,4.4,0.2,4,0.4,0.2
	c0.1-4.7,0.3,1.8,0.5-2.7c0.1,0.7,0.3,2.4,0.5-1.9c0-1.6,0-1.7,0-2.1c0,0.7,0.1-3.7,0.2-1.6c0.1-1.9,0.3,2.3,0.4-1.6
	c0.2-1.1,0.4-2.3,0.6-2c0.3,1.3,0.5,1.8,0.9-1.6c0.3-0.4,0.7-2,1.1-1.6c0-2.1,0-1.1,0-2.2c0-1.3,0-1.3,0-2.2c0,0,0,0,0-0.1
	c0-0.9,0-1.8,0-1.6c0-0.5,0-1,0-1.5c0-1,0-2.7,0-3.1c0,0,0-0.1,0-0.1c0-0.2,0-1.1,0-2.6c0-1.4,0-3.1,0-3.1c0-187.3,0-598.6,0-719.3
	H1.8z"/>
<path class="st4" d="M651.7,770.8C651.7,771.4,651.7,773.6,651.7,770.8c0-2.1,0-1.1,0-2.2c0-1.3,0-1.3,0-2.2c0-1.5,0-2.9,0-0.1
	c0-0.9,0-1.9,0-3.1c0-1.3,0-3.6,0-3.1c0-0.1,0-1,0-2.7c0-1.4,0-3.1,0-3.1c0-220.9,0-753.3,0-753.3H1.8c0,0,0,523.1,0,747.4
	c0,1,0,2.1,0,3.1c0,1,0,2,0,3.1C1.9,755,2,756.7,2,757c0.1,1.9,0.1,0.3,0.2,2.4c0,1,0.1,0.7,0.1,2.2c0-0.2,0.1-0.5,0.1,2.6
	c0,2,0,1,0,3.4c0,1.2,0,0.4,0,1.5c0.3-1.6,0.7,0.1,1-0.8c-0.2,2.1-0.6,0.3-0.1,1.8c0.3,0.5,0.6,1.4,1.1,2.9c0.4,0.4,0.9-1,1.5,2.2
	c0.9,0.4,1.8,1.1,2.7,1.3c0.9,0,1.8,3,2.8,1.2c1-0.9,1.9-0.7,2.9,0c1,0.6,2,0.9,3,1.3c1,0.5,2,1.1,3,0.2c1,0.2,2,0.3,3,0.6
	c1,3.5,2,1.9,3,1.2c1-0.1,2-2.4,3,0c1,1.2,2,1.3,2.9,0.5c1-1.4,1.9,0.8,2.8,1.8c1.4,1.1,2-2.2,1.9,0.6c0.3-1.5,0.9-1.3,1.4-0.7
	c0.6-1.1,1.1,1.5,1.3,1.4c0.7-1.1,1.3-0.8,1.6-0.9c0.4-1.6,0.5,2,0.6,2.2c2-1.3,0.8,3,2,1.5c0.2,1.5,0.1,1.4,1.3,2.1
	c1.2-0.9,1.9,0.8,1.1,2.2c1,0.6,0.3,3,0.7,2.3c0-0.7,0-0.1,0.1-0.1c1.3-0.9,1.5-0.8,0.5,2.1c0.1,1.2,0.2,1.7,0.3,0.9
	c0,0.2,0.1,1.4,0.3,1c-0.5,2.4-0.8,2.2,0.4,0.8c-0.2,0.6-0.3,1.9-0.3,2.7c0.1,0,0.3,0.4,0.5-0.2c0.1,1.3,0.2-0.6,0.3-0.1
	c0-0.3,0.1-0.1,0.2-0.1c0,0.6,0-0.7,0,0.1c0.6,0,0.9-1.2,1.1-0.3c-0.2-0.2-0.5,1-1,0.7c0,1.5,0.1,2.1,0.1,1.6c0,1.1,0.7,1.1,0.5,0.3
	c0.3-0.2,0.5,0,0.6,0.2c0,0.2-0.1,0.6,0,1.4c-0.9-1.6-0.8,2.5,0.3,2c0.9-1.7,1.8-0.5,2.7-0.3c0.5-2.6,0.9,1.1,1.4,1
	c0.5,1.1,0.9,2,1.4,0.7c0.5-0.2,1-0.3,1.4,1.3c0.5-0.2,1-1.8,1.5,0.7c0.5-1.1,1,0.6,1.5,0.8c0.5,0.7,1,0.9,1.5-0.7
	c0.5,0.3,1-0.4,1.5-0.6c0.5,1.7,1,0,1.5,0.9c0.5,0.5,1,0.9,1.5,1.3c0.5,0.1,1,0.7,1.5,0.4c1-0.5,2,0.7,2.9,1.4
	c0.5-2.4,1,0.3,1.5-0.9c0.5-0.9,1,0.5,1.4,1.2c0.4-1.2,0.8-0.8,1.2,0.5c0.7,2,1.4,0.8,2.1,0.5c0-1.1,0.1-1.1,0.1-0.7
	c0,0.1,0.1,1.6,0.1,0.8c0.2,0.1,0.4-1.6,0.6,0.2c0.8-0.7,1.6-1.2,2.6-2c1-1.6,2-0.4,3.2-1.3c0.6-0.2,1.2,0.4,1.8-0.4
	c0.6-0.2,1.3,1.4,2-0.1c0.4,0.7,0.9,0.2,1.3,0.1c0.1-0.9,0.2-1.6,0.3-0.1c0-0.1,0-1.1,0,0.1c0.7-1.3,1.4,0.1,2.1,0.4
	c0.7,2,1.3-1.2,1.9,0.7c0.4-1.9,0.8,1,1.3-0.5c0.4,1.1,0.7-0.1,1.2-1.4c0.4-0.2,0.9-1.7,1.3-1c0.1-0.9,0.2,0.5,0.3-0.2
	c0.4,0.3,0.9,0.1,1.4-1c0.5-0.5,1-0.2,1.6-0.4c0.5-0.5,1.1,0.5,1.7-0.5c0.6-1.1,1.2-1.3,1.9-0.2c0.3,0,0.5,0,0.7-0.8
	c0.3,0.9,0.5,0.5,0.7,0.7c0.6-1,1.1-0.9,1.6-0.7c0.5,0.5,1,1.1,1.5,1c0.5-0.7,1-1.2,1.4-0.8c0.5-0.1,0.9,0,1.3,1.7
	c0.6-1.5,0.9-0.7,2.4-1.1c2-0.3,1,1.3,1.5,0.3c0.8-0.8,1-0.8,1.1-0.8c0-0.1,0.1-1,0.4-0.6c0.3,0.1,2.3-0.7,3-1
	c-0.2-0.4,1-1.2,1.5-1.2c0.5-0.7,1-0.7,1.5,0.1c1,0.2,2-0.7,3-1c0.5,0.6,1,0.8,1.5,0.4c0.5,0.2,1-0.6,1.5-1.4c0.5-1.5,1-0.8,1.5-1.1
	c0.5,0.3,1-0.8,1.5,0.2c0.8-1.8,2.1-0.5,2.4-0.2c0.9-2,1.1-1.8,1.2-1.2c0.9-0.2,0.6,1.2,1.2,0.9c0.7-1.4,0.2-0.6,1.5-1.3
	c0.3,0.3,1.4,0,1.5,0.3c0.2,0.8-0.4,2.2,1.5,0.8c0.9-0.5,2.2-1.8,1.5-1.8c2-0.3,2-1.4,2.9-1.1c1.1-1.4,1-1.5,0.9-0.1
	c-0.1,0.7-0.2,1.5,0.9-0.6c0.9-1,1.6-3.1,2-1.9c0.4-0.4,0.4,1.3-0.2,1.3c1.8,0.1,0.8-0.7,1.8-0.7c1.4,1.9,2,0.4,1.8-0.6
	c1.1-0.7,1.5-0.3,1.8-0.6c-0.1-0.6,1.5,0.8,1.8-0.6c1.4-1.7,1.3-0.9,1.7-1c0.3,0.5,0,1.2,1,0.1c0.8,0,1.2-0.6,1.1-0.2
	c0.1-0.1,0.2-0.3,0.3-0.4c1.1-1.8,1.5-1.6,1.3-0.3c0.1-0.6,0.7-2.3,1.1-1.7c0.4-0.3,0.6-0.1,0,1.1c1-0.8,1.7-1.2,1.8-1.1
	c-0.8-1.5,1.2-0.3,1.2-0.5c0.6,0,1.8-0.2,2.3-0.6c0.8,0.5,2.7-1.6,2.6-0.2c-0.1,0.9,0.2,1.8,0.7,1.2c0.5-0.7,1.1-0.5,1.8-1
	c0.4-0.1,0.7,1.6,2.2,0.5c1,0.4,2,0.1,2.9,0.3c0.9-0.1,1.9,0,2.8-0.3c0.9,0.9,1.8-0.3,2.7-0.7c0.9,0.7,1.8-0.5,2.6-0.3
	c0.9-1.5,1.7,0,2.6-0.9c0.9-1.6,1.7,0.4,2.6-0.6c0.9-1.2,1.7-1.8,2.6-0.9c0.9-2.5,1.7,1.9,2.6-0.4c0.9-1.2,1.7-0.9,2.6-0.4
	c0.4,0.9,0.9-0.1,1.3,0.9c0.5-0.2,0.9-0.3,1.4-1.1c0.5,1.1,0.9,2.4,1.4,1.1c0.5,0.2,0.9-0.5,1.4-1c1-0.2,1.9-0.5,2.9,0.6
	c0.8,0.6,1.6,1.5,2.4,0.5c0.4,0.7,0.8-0.8,1.2-0.8c0.4-0.8,0.8,0.5,1.2,1.7c0.8,1.1,1.6-2,2.4,0.9c0.8,0.6,1.6-0.7,2.4,1.1
	c0.8,0,1.6-0.9,2.5,1.2c1.6,0.2,1.3,0.5,1.5,1c0.6,1.2,1.3,1.5,1.9,0.6c0.6-0.2,1,1,1.1-0.3c0.3,0.6,1.9-1.5,3,0.4
	c0.4,0.1,1.4-1.5,2.2-0.7c0.8-0.7,1.3,0.5,0.7,1.3c0.6,2.2,1.9,0.6,2.9,0.6c1.5-0.7,0.8-0.4,1.5-0.6c0.1,1.2,3-2.6,1.5,1.3
	c2.5-0.8,1.8,0.6,1.5,1.4c0.4,0,2.7-2.2,1.5-0.6c0.9-1.3,0.2,0,1.6,0.1c0.2,0.8-0.1,2.2,0.8,1.6c-0.1,0.5,0.8,0.6,2.5-0.9
	c1.9-1.3,3.1-2.1,1.6,1c-0.5,0.3,1.7-0.1,1.6-0.6c0.3-2.1,0,3,1.6,1.5c0,1.3,0.2,2.2,1.6,1.2c1.2,1.8,1.4-0.4,1.6-0.4
	c1.1,1.1-0.3-1.4,1.6-0.5c0.7-0.2,1.1-2.4,1.6,1.3c2-2,0.6,0.7,1.6,0c2-2.2,0.8,2.1,1.6,0.8c0.5,0.4,1.7-0.2,1.6,0.4
	c0.9-0.3,0.9-2.3,1.6,0.2c0.1-0.8,0.4-1.6,0.7-2.1c0,0.4,1.5-0.3,0.9,1c0.2-0.4,0.5,0.6,1.6,1.6c0.7,0.2,1-0.9,1.7,0.8
	c0.6-2.6,1.1-0.3,1.7-0.5c0.6-0.7,1.1-0.2,1.7,0.7c0.6-0.1,1.1-0.8,1.7-0.5c0.6,4.9,1.1-2.5,1.7,0.5c0.6-1.3,1.1-1.5,1.7-0.5
	c0.5-1.6,1-2.9,1.5-0.7c0.5-1,1,1.5,1.5,0.9c1,0.9,2-1.6,2.9,0.1c1,3.1,1.9,0.4,2.9,0c0.9,1.4,1.9,0.7,2.8,0
	c0.9-1.6,1.8,1.1,2.7,0.1c0.5-1.6,0.9,0.7,1.3,0c0.4,1.8,0.9,1.3,1.3,0.2c0.4-1.5,0.9-1.1,1.3-0.5c0.4,0.8,0.9,1.5,1.3,0.8
	c0.4,0.4,0.9,2.1,1.3,1.4c0.4-0.7,0.9-1,1.3-0.9c0.4-1.5,0.9-1.5,1.3-1.4c0.4-0.8,0.9,0.5,1.3,2.1c0.2,2.8,0.4,1.9,0.6,2.6
	c0.2,0.4,0.4-0.4,0.6-0.5c0.4-0.4,0.8-0.3,1.3-1.1c0.4,0.1,0.8,1.7,1.3,1.2c0.4,2.3,0.8-1.5,1.2,0c0.4-0.8,0.8-0.3,1.2,0.1
	c0.4-0.3,0.8,1.5,1.2,1.5c0.4,0.2,0.7-0.7,1.1,0.6c0.4,1.3,0.7,2,1.1,1.1c0.7,0,1.5,1.6,2.2,1.9c0.7-1.7,1.4,0.5,2.1-1
	c0.4-2.1,0.7-2.3,1.1-2.1c0.4-0.4,0.7,0.8,1.1,1.1c0.4-0.4,1.2-0.6,2.2-0.9c0.1-2.2,0.4-2.2,0.7-1.6c0.3-0.3,0.5,1.6,0.5,1.8
	c0.8-0.8,0.7,0,1.1-1c1-2.5,1.1-0.1,2.3-0.7c0.8,0.4-0.2-1,1.2-1.6c-0.1,0.3-0.6,1,0.3,0.5c0.8-0.8,1.2-1.7,1.4-1.1
	c0.7-1.4,0.5-1.5,0.7-0.9c0-2.1,0.1-1.7,0.6-0.8c0.6,0.3,0.7-0.1,0.3,0.7c0.1,0.1,1.4-0.3,3-1.1c1-0.2,1.6,0.2,3.5-0.4
	c0.2,0.8,1,0.9,2.6,0.3c0.6,0.4,1.4,0.6,2.5,0.5c1.1-0.1,1.1,0.9,2.1,1c0.8-0.2,1.1,0.6,1.6,1.1c0-0.4,0.1,0.5,0.4-0.9
	c0.9,0.6,1.2-2,1.8-0.1c0.6-1.9,1.2-1,1.8,0.2c0.6,0.3,1.2-2.7,1.7,0.3c0.6,1.1,1.1-1.6,1.6-0.4c0.5,1.4,1.1,0.1,1.6,1.3
	c0.4-0.9,0.9,1.1,1.3,1.6c0.4-1.4,0.9,0.5,1.4,0.6c0.5,0.7,0.9-2.6,1.4,0.2c0.5-1.4,0.9,2.3,1.4,1.5c0.5-1.1,0.9,0.1,1.4,1.5
	c0.5,0,1,2.1,1.4-0.1c0.5,2.9,1,1.7,1.4,1.2c0.5-0.4,1-1.8,1.5-0.1c0.5,2.8,1,1.3,1.5,1.7c0.5-0.9,1,0.4,1.5-0.9c1,3,2,0.4,3,0.5
	c1,0.1,2-2,3.1,0.3c0.5,1,1,1.4,1.5,0c0.5-1.3,1-0.4,1.6,0.1c1-0.5,2.1,0.1,3.1-0.1c1,2.1,2.1,0,3.2-0.2c0.5-0.2,1.1,0,1.6,0.6
	c0.5-1,1.1-0.6,1.6-0.9c1.1,1.2,2.1-1.8,3.2-0.4c0.5,0.1,1.1-0.6,1.6-0.7c0.5,0,1.1,1.3,1.6,0.3c0.5,0.8,1.1,1.1,1.6,0.8
	c0.5,0.4,1.1-0.5,1.6-1.2c0.5-0.5,1.1-0.5,1.6,0.5c0.5-1.4,1.1-1.4,1.6-0.9c0.5,0.3,1.1,1.6,1.6,0.8c0.5,0.6,1.1-0.5,1.6-1.1
	c0.5-1,1.1,0.4,1.6,0.1c0.5,0.4,1.1,1.3,1.6-0.3c0.5,0.6,1.1,1.1,1.6,0.4c0.5,0.4,1.1-1.1,1.6-0.5c0.2-0.7,0.6,0.3,1.3-0.9
	c0-0.2,0.8,1.7,1.5,0.8c1.2-1.1,1,0.2,2-0.9c1.5-0.9,2.3-0.6,2,0.4c2.4-0.9,1.5-0.5,2.2-0.8c1.1-2.6,1.3-1.6,0,0.7
	c1.1-1.8,1.7,0.6,2.2-1.3c1.6-1.7,1.9-1.3,0.7,0.4c1.2-1,1.4-1.3,0.9,0.4c-0.7,1.8-0.3,0.1,0.5,0.3c0.7-1.1,1.7-1.3,1.9-1.1
	c1.1,0.5,3.1-0.4,2.8,0.3c0,1.5,0.3,1.9,0.7,1.8c0.5-0.1,1.1-0.7,1.8-1.1c0.6-0.8,0.5-1,0.2,0.1c0.6-0.5-0.6,1.4,0.8,0.4
	c0.7,0,1.8-1.8,0.7,0.4c0.1,0.3,0.2-1,0.2,0.5c0.6,0.4,1.1,0.1,1.7-0.3c0.6-0.3,1.2-1.1,1.9-0.1c0.7-0.5,1.5,1.2,2.2,0.1
	c0.7-0.5,1.3-1.9,2,0.5c0.6-0.4,1.2,0.3,1.8,1c0.6-0.2,1.1,0.9,1.6,0.5c0.5,0.6,1,1.1,1.4,1.5c0.4,0.1,0.8,0.9,1.2,0.8
	c0.1-0.7,0.1,0.4,0.2,0c0.2-0.2,0.7-1.4,1.2-1c1.1-1.2,1.9,0.6,2.7-0.5c0.5-1.8,1-1.4,1.4-1.4c0.6,0.2,0.6,2.4,1.4,0.7
	c0.8-1,1.7-1.7,2.7-0.9c0.4-0.1,1.1-1.4,1.4-0.9c0.4,2.1,1.1,1.3,1.4-0.1c0.4,2.1,0.8,0.4,1.4,0.2c0.3-0.5,0.9-1.6,1.4-1.3
	c0.4,0.8,2.3,0.3,2.7-1.1c0.6-0.8,0.6-2.8,1.4-1.4c0.6,0.7,0.2,1.2,1.4,0.3c0.8,0.8,1.8-3,1.6-1.3c0.3-1.9,0.6,2.1,1.6,0.1
	c0.2-2.1,1-0.9,1.6-1.2c0.1,0,0.5-0.2,0.6,0.1c1.1-1.1,1-0.8,1.7-1.1c0.3-0.1,0.9-0.3,1.9-0.9c0.6-0.6-0.4,0.5,0.5-0.2
	c1.5-1,1.8-0.6,2.4-0.5c0.4-0.6-0.3-0.1,1.2-0.2c1.2-0.1,2.5-1.9,2.3-0.4c0.8-1.5,2.1-0.6,2.3-0.1c1.1,0.4,1.8-2.9,2.2,0.1
	c1.6,1.7,1.4,0.3,2.2,0.4c1.2-1,2.2,2.2,2.2,0.6c0.9,0.5,2,0.7,2.1,0.8c-0.2-0.7,1-0.7,1,0.5c0.9,0.3,0.6,1.8,1,0.5
	c0.3-0.2,1.7-1,1.7,0.6c0.3-1.4,1.6,1.2,1.6,0.7c0.5,2,1,0.5,1.6,1.5c0.5-0.6,1,0.5,1.5,0.1c0.5-0.8,1-0.3,1.4,0.1
	c0.5,1.4,0.9,1.8,1.4,1.6c0.5-0.3,0.9,0.9,1.3,0.2c0.4,0.3,0.9,0.4,1.3,1.8c0.5,1.5,1,1.1,1.6,1.3c0.5,1.5,1,1.9,1.5,0.2
	c0.5,1.8,1-0.2,1.5,1.3c0.5,1.7,1,0.4,1.5,0.1c0.5,0.9,1-0.7,1.5,0.4c0.5,0,1,0.3,1.5,0.8c1,1.1,2,0.7,3,1.1c0.5,0.6,1-0.4,1.5,1.3
	c0.5,1.1,1,0,1.5-0.3c1,0.8,2,1.3,3,0.8c0.5,0.1,1-3.2,1.5-0.7c0.5-2.1,1,1.2,1.5,1.4c0.6-1,1.1-0.8,1.6-1c0.4-0.2,0.8,0.7,1.4,1.4
	c0.6-0.5,1.3,0.4,1.8-0.7c0.5-0.4,0.9,1.3,1.1,1c0.2-1.3,2.5,2.1,2.9,0.2c0,0.3,0.5,2,1,0.9c0.6,0.7,1.4,0.4,1.9-0.9
	c2.2-1.1,1.3-0.5,2.9-0.2c0.2-1,1.9-1.2,2.9-0.3c0.1,1.8,2.3-1.5,1.4,0.7c0.6-0.7,1.9-1.3,1.4-1.2c1.2-0.9,1.5-0.4,2.9-0.6
	c0.8-1.8,1.3-0.9,1.8-0.6c0.4,1.1,0.7,0.3,1.1-0.2c2.5-1.2,2-1.8,2.9-1c0.4-0.2,3.1-1.3,2.9-1.1c0.7-2.4,1.1-1.9,1.4-1.7
	c0.8-0.8,1.3,0.2,1.4,0.4c0.3-1.1,1.3-2.3,1.5-1.4c0.6-1.1,1.4,0,1.5-0.1c0.4,2.7,0.8-0.8,1.5,0.1c0.1,0.2,0.8,0.1,1.5-1.7
	c0.1,1.4,1.5,1.9,1.5,0c0.8-0.4,1.4-1.1,1.5-1.8c0.8,0.4,2-2.1,2.8-0.7c0-0.2,1.2-0.5,1.4-1.3c1,0.2,1.1-1.5,1.4,0.7
	c0.2,0.2,0.9-0.6,1.4-1.4c0.5-0.1,1,0.6,1.4,0.9c0.5-0.2,1,1.6,1.4,0.8c0.5-1.2,1-0.9,1.4-1.2c1,0.4,1.9-0.9,2.9-0.3
	c0.5,0.2,1-0.1,1.4-1.4c0.5,0,1,0.4,1.4,1.2c1,1.8,1.9-1.2,2.9-0.1c1,1.6,1.9,0.2,2.9-0.1c0.9-0.1,1.8-1.3,2.6-0.7
	c0.9,0.7,1.8-1.5,2.7-0.6c0.9-1.3,1.8-0.2,2.7,0c0.9-0.3,1.8-0.2,2.7,0.1c0.5-1.3,0.9-0.5,1.4-1.4c0.5,0.1,0.9-1.5,1.4,1.7
	c1,0.5,1.9,1.9,2.9,0.3c0.5,1,1,1.1,1.5,1.5c0.5,0.6,1-0.7,1.5-1.1c1,0,2,1.5,3,0.4c1-2.7,2,1.6,3,0.4c1,2.4,2,1.2,3,0.3
	c1-2.1,2,0.9,3,0.3c0.5,1.3,1-0.1,1.5-0.1c0.5-1.1,1-2.1,1.5,0.2c1,0.5,2,1.9,2.9,0c1,0.8,1.9-1.3,2.9-0.2c0.9,0.6,1.9-0.5,2.8-0.4
	c0.9-1.3,1.8,1.2,2.7-0.6c0.5,0.4,0.9-3.5,1.4-1.4c0.2,1.6,0.5-2.6,0.7-2.3c0.2,1.1,0.5-2.9,0.7,0.8c0.5-1.5,0.9-3.2,1.4-1.5
	c0.4-0.7,0.9,1.3,1.3-1.6c0.2,3,0.4-0.7,0.6,1.1c0.2-0.9,0.4-2.1,0.6-2.8c0.2,0.1,0.4,3.9,0.6,0.7c0.2-2.9,0.4-0.6,0.6-2.6
	c0.1-0.8,0.2,3.1,0.3,2c0.1-0.5,0.2-1.1,0.3-1.6c0,1.9,0.1,2.8,0.1,0.9c0-0.3,0.1-2.8,0.1-2.8c0.1,0.6,0.2-5.8,0.3,0
	c0.2-1.2,0.4-0.4,0.6-1.5c0.2,2.9,0.4,1.9,0.6,0c0.1-3.5,0.3,2.2,0.4-1.1c-0.1,1.2-0.2-1.3-0.2-2.2c0,2.4,0-1.3,0,0
	c0-1.8,0.1-2.8,0.1-2.6c0.1-0.5,0.1,1.5,0.2-3c0,0.1,0.1,0.8,0.1-1.5c0-1.4,0.1-0.8,0.2,2.3c0.1,4.4,0.2,4,0.4,0.2
	c0.1-4.7,0.3,1.8,0.5-2.7c0.1,0.7,0.3,2.4,0.5-1.9c0-1.6,0-1.7,0-2.1c0,0.7,0.1-3.7,0.2-1.6c0.1-1.9,0.3,2.3,0.4-1.6
	c0.2-1.1,0.4-2.3,0.6-2c0.3,1.3,0.5,1.8,0.9-1.6C650.9,772,651.3,770.5,651.7,770.8z M49.1,34H27.8V12.6h21.4V34z M102.5,34H81.2
	V12.6h21.4V34z M155.9,34h-21.4V12.6h21.4V34z M209.3,34H188V12.6h21.4V34z M262.7,34h-21.4V12.6h21.4V34z M316.1,34h-21.4V12.6
	h21.4V34z M369.6,34h-21.4V12.6h21.4V34z M423,34h-21.4V12.6H423V34z M476.4,34H455V12.6h21.4V34z M529.8,34h-21.4V12.6h21.4V34z
	 M583.2,34h-21.4V12.6h21.4V34z M636.6,34h-21.4V12.6h21.4V34z"/>
</svg>
